<svg width="270" height="74" viewBox="0 0 270 74" fill="none" xmlns="http://www.w3.org/2000/svg">
<path d="M118.372 60.375C117.91 60.375 117.531 60.2292 117.237 59.9375C116.943 59.6458 116.796 59.2708 116.796 58.8125V26.4375H105.576C105.114 26.4375 104.735 26.2917 104.441 26C104.147 25.6667 104 25.2917 104 24.875V18.1875C104 17.7292 104.147 17.3542 104.441 17.0625C104.735 16.7708 105.114 16.625 105.576 16.625H139.488C139.95 16.625 140.329 16.7708 140.623 17.0625C140.917 17.3542 141.064 17.7292 141.064 18.1875V24.875C141.064 25.2917 140.917 25.6667 140.623 26C140.329 26.2917 139.95 26.4375 139.488 26.4375H128.268V58.8125C128.268 59.2708 128.121 59.6458 127.827 59.9375C127.533 60.2292 127.155 60.375 126.692 60.375H118.372Z" fill="black"/>
<path d="M139.778 60.375C139.442 60.375 139.126 60.25 138.832 60C138.58 59.7083 138.454 59.3958 138.454 59.0625C138.454 58.8542 138.475 58.6667 138.517 58.5L153.33 18.375C153.456 17.9167 153.708 17.5208 154.087 17.1875C154.507 16.8125 155.074 16.625 155.788 16.625H165.118C165.832 16.625 166.378 16.8125 166.756 17.1875C167.177 17.5208 167.45 17.9167 167.576 18.375L182.326 58.5C182.41 58.6667 182.452 58.8542 182.452 59.0625C182.452 59.3958 182.305 59.7083 182.011 60C181.759 60.25 181.443 60.375 181.065 60.375H173.312C172.682 60.375 172.198 60.2292 171.862 59.9375C171.568 59.6042 171.379 59.3125 171.295 59.0625L168.837 52.6875H152.006L149.611 59.0625C149.527 59.3125 149.338 59.6042 149.044 59.9375C148.75 60.2292 148.245 60.375 147.531 60.375H139.778ZM154.591 43.6875H166.315L160.39 27.1875L154.591 43.6875Z" fill="black"/>
<path d="M204.714 61C200.722 61 197.276 60.3542 194.376 59.0625C191.519 57.7292 189.291 55.8125 187.695 53.3125C186.14 50.7708 185.278 47.6875 185.11 44.0625C185.068 42.2708 185.047 40.375 185.047 38.375C185.047 36.3333 185.068 34.3958 185.11 32.5625C185.278 29.0208 186.161 26.0208 187.758 23.5625C189.355 21.1042 191.603 19.2292 194.502 17.9375C197.402 16.6458 200.806 16 204.714 16C207.866 16 210.66 16.3958 213.097 17.1875C215.535 17.9375 217.573 18.9583 219.212 20.25C220.893 21.5417 222.153 22.9583 222.994 24.5C223.876 26.0417 224.338 27.5625 224.38 29.0625C224.423 29.4375 224.296 29.75 224.002 30C223.75 30.25 223.435 30.375 223.057 30.375H213.854C213.392 30.375 213.034 30.3125 212.782 30.1875C212.572 30.0208 212.383 29.7917 212.215 29.5C211.921 28.875 211.48 28.2292 210.891 27.5625C210.345 26.8542 209.567 26.25 208.559 25.75C207.592 25.25 206.311 25 204.714 25C202.319 25 200.428 25.625 199.041 26.875C197.696 28.125 196.961 30.125 196.835 32.875C196.708 36.4583 196.708 40.0833 196.835 43.75C196.961 46.6667 197.738 48.7708 199.167 50.0625C200.596 51.3542 202.487 52 204.84 52C206.437 52 207.845 51.7292 209.063 51.1875C210.324 50.6458 211.311 49.8125 212.026 48.6875C212.74 47.5208 213.097 46.0417 213.097 44.25V43.0625H207.172C206.71 43.0625 206.311 42.9167 205.975 42.625C205.68 42.2917 205.533 41.8958 205.533 41.4375V36.8125C205.533 36.3542 205.68 35.9792 205.975 35.6875C206.311 35.3542 206.71 35.1875 207.172 35.1875H223.057C223.519 35.1875 223.897 35.3542 224.191 35.6875C224.486 35.9792 224.633 36.3542 224.633 36.8125V43.9375C224.633 47.5208 223.813 50.5833 222.174 53.125C220.535 55.6667 218.203 57.625 215.178 59C212.194 60.3333 208.706 61 204.714 61Z" fill="black"/>
<path d="M250.081 61C246.089 61 242.643 60.3542 239.744 59.0625C236.886 57.7292 234.659 55.8125 233.062 53.3125C231.507 50.7708 230.646 47.6875 230.478 44.0625C230.436 42.2708 230.415 40.375 230.415 38.375C230.415 36.3333 230.436 34.3958 230.478 32.5625C230.646 29.0208 231.528 26.0208 233.125 23.5625C234.722 21.1042 236.97 19.2292 239.87 17.9375C242.769 16.6458 246.173 16 250.081 16C253.233 16 256.027 16.3958 258.465 17.1875C260.902 17.9375 262.94 18.9583 264.579 20.25C266.26 21.5417 267.521 22.9583 268.361 24.5C269.244 26.0417 269.706 27.5625 269.748 29.0625C269.79 29.4375 269.664 29.75 269.37 30C269.118 30.25 268.802 30.375 268.424 30.375H259.221C258.759 30.375 258.402 30.3125 258.15 30.1875C257.939 30.0208 257.75 29.7917 257.582 29.5C257.288 28.875 256.847 28.2292 256.259 27.5625C255.712 26.8542 254.935 26.25 253.926 25.75C252.96 25.25 251.678 25 250.081 25C247.686 25 245.795 25.625 244.408 26.875C243.063 28.125 242.328 30.125 242.202 32.875C242.076 36.4583 242.076 40.0833 242.202 43.75C242.328 46.6667 243.105 48.7708 244.534 50.0625C245.963 51.3542 247.854 52 250.207 52C251.804 52 253.212 51.7292 254.431 51.1875C255.691 50.6458 256.679 49.8125 257.393 48.6875C258.108 47.5208 258.465 46.0417 258.465 44.25V43.0625H252.54C252.077 43.0625 251.678 42.9167 251.342 42.625C251.048 42.2917 250.901 41.8958 250.901 41.4375V36.8125C250.901 36.3542 251.048 35.9792 251.342 35.6875C251.678 35.3542 252.077 35.1875 252.54 35.1875H268.424C268.886 35.1875 269.265 35.3542 269.559 35.6875C269.853 35.9792 270 36.3542 270 36.8125V43.9375C270 47.5208 269.181 50.5833 267.542 53.125C265.903 55.6667 263.571 57.625 260.545 59C257.561 60.3333 254.073 61 250.081 61Z" fill="black"/>
<path d="M27.6686 13.31L27.5375 1.45708C27.5375 1.45708 24.3107 0.0926893 20.8179 0.0042921C17.3251 -0.0841051 13.4353 1.5032 13.4353 1.5032V13.0909L1.54592 13.2677C1.54592 13.2677 0 16.131 0 20.4048C0 24.6786 1.50352 27.4997 1.50352 27.4997H39.5155C39.5155 27.4997 40.9882 24.5019 40.9882 20.5663C40.9882 16.6307 39.3382 13.1947 39.3382 13.1947L27.6686 13.31Z" fill="#55ADEE"/>
<path d="M60.6496 27.5838L72.5389 27.4531C72.5389 27.4531 73.9075 24.2362 73.9962 20.7541C74.0848 17.272 72.4926 13.3941 72.4926 13.3941H60.8693L60.692 1.54119C60.692 1.54119 57.8199 0 53.5329 0C49.246 0 46.4163 1.49891 46.4163 1.49891V39.3944C46.4163 39.3944 49.4233 40.8626 53.371 40.8626C57.3187 40.8626 60.7652 39.2176 60.7652 39.2176L60.6496 27.5838Z" fill="#55ADEE"/>
<path d="M13.3504 46.4123L1.4611 46.543C1.4611 46.543 0.0925142 49.7599 0.00384527 53.242C-0.0848236 56.7241 1.50736 60.602 1.50736 60.602H13.1307L13.308 72.4549C13.308 72.4549 16.1801 73.9961 20.4671 73.9961C24.754 73.9961 27.5837 72.4972 27.5837 72.4972V34.6017C27.5837 34.6017 24.5767 33.1335 20.629 33.1335C16.6813 33.1335 13.2348 34.7823 13.2348 34.7823L13.3504 46.4123Z" fill="#55ADEE"/>
<path d="M46.3315 60.6867L46.4625 72.5397C46.4625 72.5397 49.6893 73.9041 53.1821 73.9925C56.6749 74.0809 60.5647 72.4935 60.5647 72.4935V60.9058L72.4541 60.729C72.4541 60.729 74 57.8657 74 53.5919C74 49.3181 72.4965 46.4971 72.4965 46.4971H34.4845C34.4845 46.4971 33.0118 49.4949 33.0118 53.4305C33.0118 57.3661 34.6619 60.802 34.6619 60.802L46.3315 60.6867Z" fill="#55ADEE"/>
</svg>
